<?xml version="1.0" standalone="no"?>
<!DOCTYPE svg PUBLIC "-//W3C//DTD SVG 20010904//EN"
 "http://www.w3.org/TR/2001/REC-SVG-20010904/DTD/svg10.dtd">
<svg version="1.0" xmlns="http://www.w3.org/2000/svg"
 width="300.000000pt" height="434.000000pt" viewBox="0 0 300.000000 434.000000"
 preserveAspectRatio="xMidYMid meet">
<rect width="100%" height="100%" fill="white"/>
<g transform="translate(0.000000,434.000000) scale(0.100000,-0.100000)"
fill="#000000" stroke="none">
<path d="M2100 4297 c-19 -6 -53 -29 -75 -52 -80 -80 -85 -198 -12 -282 122
-138 350 -68 365 112 13 158 -127 270 -278 222z m145 -36 c72 -33 105 -86 105
-168 0 -61 -33 -118 -88 -150 -36 -21 -52 -25 -103 -21 -66 5 -100 24 -136 78
-61 89 -31 208 67 258 54 27 101 28 155 3z"/>
<path d="M1330 4114 l-195 -113 -5 -178 -5 -177 -137 -55 -138 -55 0 -270 0
-270 -30 29 c-25 24 -30 37 -30 74 -1 124 -136 219 -256 181 -22 -7 -56 -25
-76 -41 -20 -16 -49 -29 -63 -29 -38 0 -85 -50 -85 -90 0 -47 25 -87 65 -101
19 -7 35 -16 35 -20 0 -32 105 -109 150 -109 19 0 20 -6 20 -140 0 -87 4 -140
10 -140 6 0 10 53 10 139 l0 139 32 5 c23 3 41 -2 57 -14 36 -29 98 -25 133 8
l28 27 0 -152 c0 -128 2 -152 15 -152 13 0 15 57 15 453 l0 453 178 71 177 71
5 -567 c3 -311 6 -567 8 -569 1 -2 7 0 12 3 10 6 15 1175 5 1175 -2 0 -27 -9
-55 -20 -28 -11 -53 -20 -55 -20 -3 0 -5 72 -5 159 l0 159 178 101 c98 56 181
101 185 101 4 0 7 -396 7 -880 0 -777 2 -880 15 -880 13 0 15 104 13 902 -2
591 -6 902 -13 904 -5 1 -98 -49 -205 -112z m-673 -855 c34 -13 80 -55 99 -91
8 -15 14 -47 14 -73 0 -42 -2 -45 -26 -45 -14 0 -34 -5 -45 -10 -26 -14 -51
-66 -47 -97 2 -22 -2 -28 -26 -34 -55 -15 -121 8 -170 59 l-28 31 41 39 c28
27 41 47 41 66 0 34 -24 82 -46 90 -13 5 -14 9 -3 22 38 46 134 67 196 43z
m-253 -96 c-4 -16 -10 -53 -13 -83 l-6 -55 -27 27 c-19 18 -28 37 -28 59 0 37
33 79 63 79 16 0 18 -4 11 -27z m70 -5 c24 -33 20 -75 -9 -104 -14 -14 -31
-24 -38 -21 -17 5 -21 83 -6 118 14 35 32 37 53 7z m286 -137 c0 -21 -60 -91
-79 -91 -22 0 -11 52 18 81 34 33 61 38 61 10z m60 -20 c39 -74 -39 -160 -106
-117 l-25 17 46 51 c25 27 45 54 45 59 0 17 29 9 40 -10z"/>
<path d="M2260 2960 c0 -782 4 -905 25 -817 3 12 4 374 3 805 -2 430 1 781 5
779 4 -1 42 -45 82 -97 l75 -95 0 -737 c0 -649 2 -738 15 -738 13 0 15 26 15
176 l0 176 26 -31 c14 -17 31 -31 37 -31 6 0 27 -18 47 -41 20 -23 52 -46 75
-54 l40 -13 3 -106 3 -105 -73 -3 c-65 -3 -73 -5 -73 -23 0 -19 7 -20 170 -20
163 0 170 1 170 20 0 18 -8 20 -87 23 l-88 3 0 109 0 110 28 0 c15 0 36 -7 46
-15 29 -22 70 -18 100 10 34 31 34 74 1 113 -15 18 -25 42 -25 61 0 132 -182
210 -270 116 -13 -14 -35 -25 -49 -25 -14 0 -38 -12 -53 -27 l-28 -27 0 543 0
543 -100 129 c-56 71 -105 129 -110 129 -6 0 -10 -313 -10 -840z m536 -425
c34 -22 64 -74 64 -110 0 -26 -5 -33 -36 -44 -37 -14 -69 -65 -58 -94 7 -18
-35 -30 -73 -21 -38 9 -90 41 -97 60 -4 10 5 26 24 44 36 34 39 75 8 115 l-21
27 24 19 c13 10 33 20 44 23 35 8 95 -2 121 -19z m-236 -71 c-6 -14 -10 -41
-10 -60 0 -50 -28 -41 -45 14 -9 29 18 72 45 72 17 0 18 -4 10 -26z m70 -32
c0 -28 -26 -62 -47 -62 -16 0 -18 56 -3 96 10 26 11 26 30 9 11 -10 20 -29 20
-43z m220 -76 c0 -20 -39 -66 -56 -66 -22 0 -17 28 11 55 27 28 45 32 45 11z
m50 -15 c25 -47 -1 -101 -49 -101 -53 0 -58 15 -18 59 20 23 37 46 37 51 0 17
19 11 30 -9z"/>
<path d="M1740 3010 c0 -447 3 -680 10 -680 7 0 10 225 10 654 0 360 3 657 8
659 6 4 378 -156 410 -176 9 -6 12 -149 12 -658 0 -516 3 -650 13 -646 9 3 12
144 12 663 l0 658 -234 103 c-129 57 -236 103 -238 103 -2 0 -3 -306 -3 -680z"/>
<path d="M181 2549 c-6 -30 -36 -193 -67 -364 -30 -170 -58 -320 -61 -332 l-5
-23 184 0 184 0 54 316 54 316 30 -6 c16 -4 31 -8 33 -10 3 -3 -52 -376 -72
-493 l-6 -33 180 0 c179 0 181 0 186 23 3 12 19 96 36 187 17 91 37 202 46
248 10 52 20 81 27 79 134 -56 916 -360 1096 -427 l155 -58 173 -4 c95 -2 167
-1 160 3 -11 6 -1346 528 -1533 600 -43 16 -77 19 -237 19 -123 0 -188 -4
-190 -11 -2 -7 -13 -7 -33 2 -17 6 -107 14 -207 17 l-176 5 -11 -54z"/>
<path d="M260 1746 c0 -3 -38 -222 -85 -488 -47 -266 -85 -489 -85 -495 0 -9
22 -13 75 -13 84 0 74 -12 96 113 l11 67 108 0 107 0 14 -87 14 -88 83 -3 c77
-3 82 -1 82 17 0 19 -153 907 -165 959 -5 21 -9 22 -130 22 -69 0 -125 -2
-125 -4z m165 -445 c20 -122 34 -225 32 -227 -3 -3 -40 -4 -83 -2 l-79 3 39
244 c26 158 42 238 47 225 5 -10 24 -120 44 -243z"/>
<path d="M770 1250 l0 -500 85 0 85 0 0 189 0 189 93 4 c189 9 247 81 247 308
0 131 -18 197 -65 245 -53 52 -111 65 -292 65 l-153 0 0 -500z m311 341 c23
-18 24 -25 24 -151 0 -126 -1 -133 -24 -151 -17 -14 -39 -19 -82 -19 l-59 0 0
170 0 170 59 0 c43 0 65 -5 82 -19z"/>
<path d="M1370 1250 l0 -500 85 0 85 0 0 215 0 215 100 0 100 0 0 -215 0 -215
85 0 85 0 0 500 0 500 -85 0 -85 0 0 -215 0 -215 -100 0 -100 0 0 215 0 215
-85 0 -85 0 0 -500z"/>
<path d="M2040 1250 l0 -500 85 0 85 0 0 500 0 500 -85 0 -85 0 0 -500z"/>
<path d="M2466 1733 c-3 -10 -41 -227 -86 -483 -45 -256 -83 -473 -86 -482 -5
-16 3 -18 74 -18 l79 0 14 88 14 87 110 0 110 0 14 -87 14 -88 83 0 c52 0 84
4 84 10 0 9 -107 623 -157 903 l-16 87 -123 0 c-108 0 -123 -2 -128 -17z m159
-399 c19 -120 37 -229 40 -241 5 -22 3 -23 -81 -23 l-86 0 6 28 c3 15 19 113
36 217 34 216 40 248 46 243 2 -3 19 -103 39 -224z"/>
<path d="M57 653 c-13 -12 -7 -41 9 -47 20 -8 2828 -8 2848 0 21 8 21 40 0 48
-22 8 -2849 8 -2857 -1z"/>
<path d="M136 528 c-5 -14 -26 -150 -26 -167 0 -21 19 -11 22 12 2 12 10 22
18 22 8 0 16 -10 18 -22 5 -33 22 -28 21 5 -4 97 -39 195 -53 150z m24 -78 c0
-16 -4 -30 -10 -30 -5 0 -10 14 -10 30 0 17 5 30 10 30 6 0 10 -13 10 -30z"/>
<path d="M257 533 c-4 -3 -7 -14 -7 -24 0 -9 -9 -19 -20 -22 -19 -5 -21 -12
-18 -69 3 -60 4 -63 31 -66 l27 -3 0 95 c0 96 -1 102 -13 89z m-7 -113 c0 -27
-4 -50 -10 -50 -5 0 -10 23 -10 50 0 28 5 50 10 50 6 0 10 -22 10 -50z"/>
<path d="M430 524 c0 -8 5 -12 10 -9 6 4 8 11 5 16 -9 14 -15 11 -15 -7z"/>
<path d="M556 531 c-4 -7 -5 -15 -2 -18 9 -9 19 4 14 18 -4 11 -6 11 -12 0z"/>
<path d="M946 531 c-4 -7 -5 -15 -2 -18 9 -9 19 4 14 18 -4 11 -6 11 -12 0z"/>
<path d="M1017 533 c-4 -3 -7 -11 -7 -17 0 -6 5 -5 12 2 6 6 9 14 7 17 -3 3
-9 2 -12 -2z"/>
<path d="M1240 516 c0 -19 -5 -26 -19 -26 -23 0 -35 -52 -25 -104 5 -30 10
-35 35 -34 l29 1 0 88 c0 48 -4 91 -10 94 -6 4 -10 -5 -10 -19z m0 -96 c0 -46
-17 -62 -26 -25 -8 31 3 78 16 70 6 -3 10 -24 10 -45z"/>
<path d="M1410 445 c0 -57 4 -95 10 -95 6 0 10 18 10 40 0 33 3 40 20 40 37 0
50 80 16 102 -6 4 -21 8 -33 8 -22 0 -23 -3 -23 -95z m48 38 c-4 -39 -28 -42
-28 -4 0 21 5 31 16 31 11 0 14 -8 12 -27z"/>
<path d="M1736 531 c-4 -7 -5 -15 -2 -18 9 -9 19 4 14 18 -4 11 -6 11 -12 0z"/>
<path d="M1900 516 c0 -19 -5 -26 -19 -26 -23 0 -35 -52 -25 -104 5 -30 10
-35 35 -34 l29 1 0 88 c0 48 -4 91 -10 94 -6 4 -10 -5 -10 -19z m0 -96 c0 -46
-17 -62 -26 -25 -8 31 3 78 16 70 6 -3 10 -24 10 -45z"/>
<path d="M2070 516 c0 -19 -5 -26 -20 -26 -23 0 -36 -51 -26 -105 6 -31 11
-35 36 -35 l30 0 0 89 c0 50 -4 93 -10 96 -6 4 -10 -5 -10 -19z m-2 -102 c-2
-22 -7 -39 -13 -39 -13 0 -18 40 -10 72 9 39 27 13 23 -33z"/>
<path d="M2160 446 c0 -57 4 -96 10 -96 6 0 10 20 10 45 0 33 4 45 15 45 11 0
15 -12 15 -45 0 -25 5 -45 10 -45 6 0 10 39 10 96 0 61 -4 93 -10 89 -5 -3
-10 -22 -10 -41 0 -24 -5 -34 -15 -34 -10 0 -15 10 -15 34 0 19 -4 38 -10 41
-6 4 -10 -28 -10 -89z"/>
<path d="M2406 531 c-4 -7 -5 -15 -2 -18 9 -9 19 4 14 18 -4 11 -6 11 -12 0z"/>
<path d="M2810 445 c0 -57 4 -95 10 -95 6 0 10 38 10 95 0 57 -4 95 -10 95 -6
0 -10 -38 -10 -95z"/>
<path d="M675 520 c-8 -14 -8 -148 1 -161 14 -24 20 -1 18 77 -2 87 -6 105
-19 84z"/>
<path d="M2678 508 c-6 -37 6 -151 17 -155 9 -3 10 47 6 160 -1 25 -18 21 -23
-5z"/>
<path d="M302 415 c1 -40 3 -53 5 -30 8 99 33 113 33 19 0 -30 5 -54 10 -54 6
0 10 24 10 54 0 30 5 58 10 61 6 4 10 -15 10 -49 0 -30 5 -58 10 -61 6 -4 10
19 10 63 l0 70 -50 -1 -50 -1 2 -71z"/>
<path d="M430 420 c0 -45 4 -69 10 -65 6 3 10 33 10 65 0 32 -4 62 -10 65 -6
4 -10 -20 -10 -65z"/>
<path d="M470 419 c0 -39 4 -69 10 -69 6 0 10 24 10 54 0 30 5 58 10 61 6 4
10 -17 10 -54 0 -36 4 -61 10 -61 7 0 10 25 8 67 -3 66 -4 68 -30 70 l-28 2 0
-70z"/>
<path d="M550 420 c0 -40 4 -70 10 -70 6 0 10 30 10 70 0 40 -4 70 -10 70 -6
0 -10 -30 -10 -70z"/>
<path d="M595 469 c-5 -14 0 -31 14 -50 12 -15 21 -33 21 -39 0 -14 -17 -13
-23 3 -2 6 -7 9 -11 6 -14 -13 7 -40 28 -37 30 4 32 41 5 77 -12 17 -19 34
-15 38 4 4 11 1 16 -7 11 -18 25 -6 17 15 -9 22 -45 19 -52 -6z"/>
<path d="M720 419 c0 -39 4 -69 10 -69 6 0 10 22 10 49 0 28 5 53 10 56 17 11
11 31 -10 32 -18 2 -20 -4 -20 -68z"/>
<path d="M784 475 c-4 -9 -3 -19 1 -23 4 -4 10 -1 12 6 6 17 23 15 23 -3 0 -8
-9 -19 -20 -25 -14 -8 -20 -21 -20 -45 0 -32 2 -35 30 -35 l31 0 -3 68 c-3 61
-5 67 -26 70 -13 2 -25 -3 -28 -13z m36 -80 c0 -14 -4 -25 -10 -25 -11 0 -14
33 -3 43 11 11 13 8 13 -18z"/>
<path d="M866 475 c-9 -24 -7 -98 3 -113 13 -21 46 -10 49 16 2 12 -1 22 -7
22 -6 0 -11 -7 -11 -15 0 -8 -4 -15 -10 -15 -5 0 -10 23 -10 50 0 54 5 60 27
33 12 -17 13 -16 11 7 -4 30 -42 41 -52 15z"/>
<path d="M940 420 c0 -40 4 -70 10 -70 6 0 10 30 10 70 0 40 -4 70 -10 70 -6
0 -10 -30 -10 -70z"/>
<path d="M984 455 c-3 -19 -3 -51 0 -70 6 -28 11 -35 30 -35 26 0 36 21 36 77
0 46 -9 63 -36 63 -19 0 -24 -7 -30 -35z m44 -41 c-2 -22 -7 -39 -13 -39 -12
0 -19 60 -10 83 10 28 27 -3 23 -44z"/>
<path d="M1070 421 c0 -41 4 -71 10 -71 6 0 10 27 10 60 0 33 4 60 10 60 6 0
10 -27 10 -60 0 -35 4 -60 10 -60 7 0 10 25 8 68 -3 65 -4 67 -30 70 l-28 3 0
-70z"/>
<path d="M1287 484 c-10 -10 -8 -106 2 -122 14 -22 46 -10 49 18 2 23 1 24
-11 8 -19 -25 -27 -22 -27 7 0 19 5 25 21 25 17 0 20 5 17 33 -2 23 -8 33 -23
35 -12 2 -24 0 -28 -4z m33 -29 c0 -8 -4 -15 -10 -15 -5 0 -10 7 -10 15 0 8 5
15 10 15 6 0 10 -7 10 -15z"/>
<path d="M1505 481 c-10 -9 -5 -120 5 -126 6 -4 10 11 10 38 0 27 6 49 15 57
22 18 18 39 -5 37 -12 -1 -23 -3 -25 -6z"/>
<path d="M1566 475 c-9 -24 -7 -98 3 -113 15 -24 44 -9 53 26 12 45 -3 96 -29
100 -12 2 -23 -4 -27 -13z m40 -30 c7 -30 -2 -75 -16 -75 -6 0 -10 23 -10 50
0 53 15 67 26 25z"/>
<path d="M1650 395 c0 -62 4 -94 10 -90 6 3 10 14 10 24 0 10 9 21 20 24 19 5
21 12 18 69 -3 60 -4 63 -30 66 l-28 3 0 -96z m40 25 c0 -21 -4 -42 -10 -45
-6 -4 -10 13 -10 45 0 32 4 49 10 45 6 -3 10 -24 10 -45z"/>
<path d="M1730 420 c0 -40 4 -70 10 -70 6 0 10 30 10 70 0 40 -4 70 -10 70 -6
0 -10 -30 -10 -70z"/>
<path d="M1776 474 c-3 -9 -6 -33 -6 -54 0 -51 8 -70 31 -70 20 0 44 35 30 44
-5 3 -12 -1 -15 -10 -8 -20 -26 -8 -26 17 0 14 7 19 25 19 28 0 30 6 15 44
-11 29 -44 35 -54 10z m42 -22 c2 -7 -3 -12 -12 -12 -9 0 -16 7 -16 16 0 17
22 14 28 -4z"/>
<path d="M1944 475 c-4 -9 -3 -19 1 -23 4 -4 10 -1 12 6 3 6 9 12 14 12 16 0
10 -25 -12 -43 -13 -12 -19 -27 -17 -45 2 -22 8 -27 31 -28 l28 -1 -3 66 c-3
60 -5 66 -26 69 -13 2 -25 -3 -28 -13z m36 -80 c0 -14 -4 -25 -10 -25 -11 0
-14 33 -3 43 11 11 13 8 13 -18z"/>
<path d="M2264 477 c-3 -8 -4 -39 -2 -68 3 -50 5 -54 28 -54 24 0 25 2 25 65
0 60 -2 65 -23 68 -12 2 -24 -3 -28 -11z m36 -57 c0 -27 -4 -50 -10 -50 -5 0
-10 23 -10 50 0 28 5 50 10 50 6 0 10 -22 10 -50z"/>
<path d="M2340 419 c0 -39 4 -69 10 -69 6 0 10 20 10 44 0 25 5 48 10 51 18
11 11 41 -10 42 -18 2 -20 -4 -20 -68z"/>
<path d="M2400 420 c0 -40 4 -70 10 -70 6 0 10 30 10 70 0 40 -4 70 -10 70 -6
0 -10 -30 -10 -70z"/>
<path d="M2440 475 c0 -8 7 -15 15 -15 14 0 14 -4 0 -36 -22 -54 -20 -74 10
-74 16 0 25 6 25 15 0 8 -7 15 -15 15 -14 0 -14 4 0 36 22 54 20 74 -10 74
-16 0 -25 -6 -25 -15z"/>
<path d="M2514 477 c-3 -8 -4 -39 -2 -68 3 -50 5 -54 28 -54 24 0 25 2 25 65
0 60 -2 65 -23 68 -12 2 -24 -3 -28 -11z m36 -57 c0 -27 -4 -50 -10 -50 -5 0
-10 23 -10 50 0 28 5 50 10 50 6 0 10 -22 10 -50z"/>
<path d="M2595 481 c-10 -9 -5 -131 5 -131 6 0 10 20 10 44 0 24 3 51 6 60 12
30 24 4 24 -50 0 -34 4 -53 10 -49 12 7 13 104 2 122 -7 11 -47 14 -57 4z"/>
<path d="M2737 484 c-4 -4 -7 -14 -7 -22 0 -12 3 -12 15 -2 28 23 28 2 1 -31
-15 -17 -25 -38 -22 -46 4 -8 6 -18 6 -23 0 -5 14 -8 30 -8 l31 1 -3 66 c-3
58 -6 66 -23 69 -12 2 -24 0 -28 -4z m29 -100 c-3 -8 -10 -12 -16 -9 -7 4 -6
14 2 28 12 24 24 8 14 -19z"/>
<path d="M2856 353 c10 -40 14 -41 14 -5 0 18 -5 32 -10 32 -6 0 -8 -11 -4
-27z"/>
<path d="M200 146 c0 -57 4 -96 10 -96 6 0 10 36 10 89 0 50 -4 93 -10 96 -6
4 -10 -28 -10 -89z"/>
<path d="M548 234 c-5 -4 -8 -47 -8 -96 l0 -88 30 0 c25 0 30 4 36 35 10 53
-3 105 -26 105 -13 0 -20 8 -22 26 -2 14 -6 22 -10 18z m42 -111 c0 -30 -10
-54 -21 -47 -10 6 -12 77 -2 87 9 10 23 -13 23 -40z"/>
<path d="M630 226 c0 -9 5 -16 10 -16 6 0 10 4 10 9 0 6 -4 13 -10 16 -5 3
-10 -1 -10 -9z"/>
<path d="M670 146 c0 -57 4 -96 10 -96 6 0 10 36 10 89 0 50 -4 93 -10 96 -6
4 -10 -28 -10 -89z"/>
<path d="M716 231 c-4 -7 -5 -15 -2 -18 9 -9 19 4 14 18 -4 11 -6 11 -12 0z"/>
<path d="M900 226 c0 -9 5 -16 10 -16 6 0 10 4 10 9 0 6 -4 13 -10 16 -5 3
-10 -1 -10 -9z"/>
<path d="M1134 227 c-13 -36 -30 -177 -20 -174 6 2 12 13 14 25 5 30 30 28 38
-3 6 -22 24 -36 24 -17 0 11 -20 134 -25 160 -6 24 -23 30 -31 9z m16 -101
c-7 -7 -10 4 -9 29 1 40 1 40 10 10 5 -18 5 -33 -1 -39z"/>
<path d="M1597 233 c-4 -3 -7 -11 -7 -17 0 -6 5 -5 12 2 6 6 9 14 7 17 -3 3
-9 2 -12 -2z"/>
<path d="M1965 230 c-12 -19 -17 -106 -8 -140 10 -37 34 -50 58 -30 16 14 20
50 6 50 -5 0 -11 -9 -14 -20 -3 -11 -10 -20 -16 -20 -7 0 -11 26 -11 70 0 69
10 87 29 53 14 -27 26 -7 13 22 -12 25 -45 34 -57 15z"/>
<path d="M2380 145 c0 -57 4 -95 10 -95 6 0 10 38 10 95 0 57 -4 95 -10 95 -6
0 -10 -38 -10 -95z"/>
<path d="M2625 229 c-4 -6 -5 -12 -2 -15 2 -3 7 2 10 11 7 17 1 20 -8 4z"/>
<path d="M2425 220 c-8 -14 -8 -148 1 -161 14 -24 20 -1 18 77 -2 87 -6 105
-19 84z"/>
<path d="M240 118 c0 -39 4 -68 10 -68 6 0 10 24 10 54 0 94 25 80 33 -19 2
-22 4 -8 5 32 l2 72 -30 -1 -30 -1 0 -69z"/>
<path d="M330 118 c0 -39 4 -68 10 -68 6 0 10 27 10 61 0 37 4 58 10 54 6 -3
10 -31 10 -61 0 -30 5 -54 10 -54 6 0 10 24 10 54 0 55 12 80 24 50 3 -9 6
-36 6 -60 0 -24 5 -44 10 -44 11 0 13 109 2 126 -4 6 -28 11 -54 11 l-48 -1 0
-68z"/>
<path d="M464 176 c-3 -7 -4 -38 -2 -67 3 -50 5 -54 28 -54 22 0 25 5 28 44 5
63 -4 91 -29 91 -11 0 -22 -6 -25 -14z m36 -56 c0 -27 -4 -50 -10 -50 -5 0
-10 23 -10 50 0 28 5 50 10 50 6 0 10 -22 10 -50z"/>
<path d="M630 120 c0 -45 4 -69 10 -65 6 3 10 33 10 65 0 32 -4 62 -10 65 -6
4 -10 -20 -10 -65z"/>
<path d="M710 120 c0 -40 4 -70 10 -70 6 0 10 30 10 70 0 40 -4 70 -10 70 -6
0 -10 -30 -10 -70z"/>
<path d="M756 174 c-8 -21 2 -33 13 -15 5 7 14 10 21 6 8 -5 4 -15 -15 -35
-37 -39 -32 -74 13 -77 32 -1 32 -1 32 45 0 70 -9 92 -35 92 -13 0 -26 -7 -29
-16z m44 -73 c0 -22 -16 -36 -24 -22 -8 12 3 41 15 41 5 0 9 -9 9 -19z"/>
<path d="M840 119 c0 -39 4 -69 10 -69 6 0 10 22 10 49 0 28 5 53 10 56 17 11
11 31 -10 32 -18 2 -20 -4 -20 -68z"/>
<path d="M900 121 c0 -41 4 -71 10 -71 6 0 10 28 10 64 0 36 -4 68 -10 71 -6
4 -10 -20 -10 -64z"/>
<path d="M944 175 c-4 -9 -3 -19 1 -23 4 -4 10 -1 12 6 6 17 23 15 23 -3 0 -8
-9 -19 -20 -25 -14 -8 -20 -21 -20 -45 0 -32 2 -35 30 -35 l31 0 -3 68 c-3 61
-5 67 -26 70 -13 2 -25 -3 -28 -13z m36 -80 c0 -14 -4 -25 -10 -25 -11 0 -14
33 -3 43 11 11 13 8 13 -18z"/>
<path d="M1207 175 c-7 -16 4 -47 25 -77 7 -9 9 -21 5 -25 -5 -4 -12 -1 -17 7
-12 19 -22 8 -14 -14 4 -10 15 -16 28 -14 29 4 32 41 6 79 -24 33 -20 50 6 28
14 -12 16 -11 13 6 -5 25 -44 32 -52 10z"/>
<path d="M1286 174 c-3 -9 -6 -33 -6 -54 0 -21 3 -45 6 -54 9 -23 51 -20 57 4
6 25 -8 36 -17 13 -5 -12 -10 -13 -18 -5 -15 15 -2 42 22 42 22 0 26 20 10 51
-13 23 -46 25 -54 3z m44 -25 c0 -5 -7 -9 -15 -9 -15 0 -20 12 -9 23 8 8 24
-1 24 -14z"/>
<path d="M1367 175 c-7 -16 4 -47 25 -77 7 -9 9 -21 5 -25 -5 -4 -12 -1 -17 7
-12 19 -22 8 -14 -14 4 -10 15 -16 28 -14 30 4 33 44 6 80 -24 32 -20 49 6 27
14 -12 16 -11 13 6 -5 25 -44 32 -52 10z"/>
<path d="M1446 174 c-3 -9 -6 -33 -6 -54 0 -51 8 -70 31 -70 23 0 39 29 39 70
0 17 -5 40 -10 51 -13 23 -46 25 -54 3z m42 -59 c-4 -56 -28 -58 -28 -2 0 24
3 47 7 51 13 13 24 -12 21 -49z"/>
<path d="M1530 118 c0 -39 4 -68 10 -68 6 0 10 22 10 49 0 28 5 53 10 56 17
11 11 31 -10 31 -18 0 -20 -7 -20 -68z"/>
<path d="M1590 120 c0 -45 4 -69 10 -65 6 3 10 33 10 65 0 32 -4 62 -10 65 -6
4 -10 -20 -10 -65z"/>
<path d="M1634 175 c-4 -9 -3 -19 1 -23 4 -4 10 -1 12 6 6 17 23 15 23 -3 0
-8 -9 -19 -20 -25 -14 -8 -20 -21 -20 -45 0 -32 2 -35 30 -35 l31 0 -3 68 c-3
61 -5 67 -26 70 -13 2 -25 -3 -28 -13z m36 -80 c0 -14 -4 -25 -10 -25 -11 0
-14 33 -3 43 11 11 13 8 13 -18z"/>
<path d="M1717 183 c-14 -13 -6 -50 13 -68 21 -19 27 -45 11 -45 -5 0 -11 6
-14 13 -2 6 -8 9 -12 5 -15 -14 5 -39 27 -36 31 4 36 48 8 73 -21 19 -27 45
-11 45 5 0 11 -6 14 -12 2 -7 7 -10 11 -7 3 3 4 14 0 23 -6 16 -35 22 -47 9z"/>
<path d="M1836 138 c4 -29 8 -72 7 -96 -1 -92 30 -25 43 92 5 44 4 57 -4 52
-7 -4 -12 -23 -12 -42 0 -21 -4 -33 -10 -29 -5 3 -10 22 -10 41 0 19 -5 34
-11 34 -8 0 -9 -15 -3 -52z"/>
<path d="M2054 177 c-3 -8 -4 -39 -2 -68 3 -50 5 -54 28 -54 24 0 25 2 25 65
0 60 -2 65 -23 68 -12 2 -24 -3 -28 -11z m36 -57 c0 -27 -4 -50 -10 -50 -5 0
-10 23 -10 50 0 28 5 50 10 50 6 0 10 -22 10 -50z"/>
<path d="M2135 181 c-10 -9 -5 -131 5 -131 6 0 10 20 10 44 0 24 3 51 6 60 12
30 24 5 24 -50 0 -30 5 -54 10 -54 12 0 13 109 2 127 -7 11 -47 14 -57 4z"/>
<path d="M2227 184 c-13 -14 -7 -51 13 -76 21 -27 16 -45 -7 -27 -10 9 -13 7
-13 -10 0 -15 6 -21 24 -21 13 0 26 7 30 15 7 19 -7 57 -28 74 -9 7 -13 17
-10 23 3 5 12 4 21 -4 13 -10 15 -9 12 7 -4 20 -29 31 -42 19z"/>
<path d="M2302 123 l-2 -73 30 0 30 0 0 70 c0 83 -18 95 -22 15 -4 -72 -21
-71 -29 2 l-6 58 -1 -72z"/>
<path d="M2474 177 c-3 -8 -4 -39 -2 -68 3 -50 5 -54 28 -54 24 0 25 2 25 65
0 60 -2 65 -23 68 -12 2 -24 -3 -28 -11z m36 -57 c0 -27 -4 -50 -10 -50 -5 0
-10 23 -10 50 0 28 5 50 10 50 6 0 10 -22 10 -50z"/>
<path d="M2550 119 c0 -39 4 -69 10 -69 6 0 10 20 10 44 0 26 6 48 15 56 23
19 18 38 -10 38 -24 0 -25 -3 -25 -69z"/>
<path d="M2610 120 c0 -40 4 -70 10 -70 6 0 10 30 10 70 0 40 -4 70 -10 70 -6
0 -10 -30 -10 -70z"/>
<path d="M2656 174 c-9 -23 0 -29 19 -14 28 24 29 0 1 -29 -22 -23 -27 -36
-22 -55 5 -20 12 -24 36 -24 29 1 30 2 30 54 0 29 -3 59 -6 68 -8 21 -50 21
-58 0z m44 -73 c0 -22 -16 -36 -24 -22 -8 12 3 41 15 41 5 0 9 -9 9 -19z"/>
<path d="M2747 184 c-14 -14 -7 -52 14 -78 24 -30 19 -47 -7 -25 -14 12 -16
11 -13 -6 5 -24 38 -32 50 -13 14 21 11 35 -16 66 -25 30 -23 51 3 30 12 -10
14 -9 11 7 -4 20 -29 31 -42 19z"/>
<path d="M1027 73 c-2 -5 -1 -19 4 -33 7 -23 7 -23 8 8 1 31 -3 40 -12 25z"/>
</g>
</svg>
